<svg width="30" height="30" viewBox="0 0 30 30" fill="none" xmlns="http://www.w3.org/2000/svg">
<path d="M5 8.5C5 17.0604 11.9396 24 20.5 24C20.8862 24 21.2691 23.9859 21.6483 23.9581C22.0834 23.9262 22.3009 23.9103 22.499 23.7963C22.663 23.7019 22.8185 23.5345 22.9007 23.364C23 23.1582 23 22.9181 23 22.438V19.6207C23 19.2169 23 19.015 22.9335 18.842C22.8749 18.6891 22.7795 18.553 22.6559 18.4456C22.516 18.324 22.3262 18.255 21.9468 18.117L18.74 16.9509C18.2985 16.7904 18.0777 16.7101 17.8683 16.7237C17.6836 16.7357 17.5059 16.7988 17.3549 16.9058C17.1837 17.0271 17.0629 17.2285 16.8212 17.6314L16 19C13.3501 17.7999 11.2019 15.6489 10 13L11.3686 12.1788C11.7715 11.9371 11.9729 11.8163 12.0942 11.6451C12.2012 11.4941 12.2643 11.3164 12.2763 11.1317C12.2899 10.9223 12.2096 10.7015 12.0491 10.26L10.883 7.05321C10.745 6.67376 10.676 6.48403 10.5544 6.3441C10.447 6.22049 10.3109 6.12515 10.158 6.06645C9.98496 6 9.78308 6 9.37932 6H6.56201C6.08188 6 5.84181 6 5.63598 6.09925C5.4655 6.18146 5.29814 6.33701 5.2037 6.50103C5.08968 6.69907 5.07375 6.91662 5.04189 7.35173C5.01413 7.73086 5 8.11378 5 8.5Z" stroke="black" stroke-width="2" stroke-linecap="round" stroke-linejoin="round"/>
</svg>
