<svg width="58" height="58" viewBox="0 0 58 58" fill="none" xmlns="http://www.w3.org/2000/svg">
<g filter="url(#filter0_d_113_101)">
<rect x="4" width="50" height="50" rx="25" fill="white"/>
<path d="M24.0001 32.9688C25.0357 32.9688 25.8751 33.8083 25.8751 34.8438C25.8751 35.8793 25.0357 36.7188 24.0001 36.7188C22.9646 36.7188 22.1251 35.8793 22.1251 34.8438C22.1251 33.8083 22.9646 32.9688 24.0001 32.9688Z" stroke="black" stroke-width="2"/>
<path d="M35.2501 32.9689C36.2856 32.9689 37.1251 33.8083 37.1251 34.8439C37.1251 35.8794 36.2856 36.7189 35.2501 36.7189C34.2146 36.7189 33.3751 35.8794 33.3751 34.8439C33.3751 33.8083 34.2146 32.9689 35.2501 32.9689Z" stroke="black" stroke-width="2"/>
<path d="M17.4361 13.3344C16.9476 13.1627 16.4124 13.4194 16.2407 13.9079C16.069 14.3963 16.3257 14.9315 16.8142 15.1032L17.4361 13.3344ZM40.4474 22.8223L41.3655 23.0116L41.3668 23.0058L40.4474 22.8223ZM21.7602 22.6688V19.2668H19.8852V22.6688H21.7602ZM17.7626 13.4492L17.4361 13.3344L16.8142 15.1032L17.1407 15.218L17.7626 13.4492ZM28.297 30.7813H34.9256V28.9063H28.297V30.7813ZM21.7602 19.2668C21.7602 18.3828 21.7615 17.6452 21.6966 17.0458C21.6295 16.4253 21.4839 15.8594 21.1315 15.3436L19.5834 16.4015C19.6962 16.5666 19.7833 16.7934 19.8325 17.2476C19.884 17.7228 19.8852 18.3418 19.8852 19.2668H21.7602ZM17.1407 15.218C17.9752 15.5114 18.5236 15.7059 18.9272 15.9039C19.3062 16.0899 19.4733 16.2404 19.5834 16.4015L21.1315 15.3436C20.7762 14.8238 20.3039 14.4909 19.7531 14.2206C19.2269 13.9624 18.5551 13.7278 17.7626 13.4492L17.1407 15.218ZM19.8852 22.6688C19.8852 24.4844 19.9023 25.7937 20.0736 26.7939C20.2565 27.8618 20.6217 28.6264 21.3044 29.3466L22.6651 28.0566C22.2649 27.6344 22.049 27.2211 21.9217 26.4774C21.7827 25.6661 21.7602 24.5301 21.7602 22.6688H19.8852ZM28.297 28.9063C26.526 28.9063 25.2972 28.9041 24.3713 28.7728C23.4778 28.6461 23.0058 28.4158 22.6651 28.0566L21.3044 29.3466C22.0468 30.1296 22.9878 30.4704 24.1081 30.6292C25.1961 30.7836 26.5818 30.7813 28.297 30.7813V28.9063ZM20.8227 19.0563H35.9861V17.1813H20.8227V19.0563ZM39.5291 22.633L38.9045 25.6639L40.7409 26.0424L41.3655 23.0116L39.5291 22.633ZM35.9861 19.0563C37.0566 19.0563 37.9988 19.0576 38.7423 19.1407C39.1118 19.182 39.3883 19.2394 39.5825 19.3076C39.7843 19.3785 39.8164 19.4329 39.8003 19.4118L41.2864 18.2685C40.9926 17.8868 40.5796 17.6706 40.2041 17.5387C39.821 17.404 39.3878 17.3262 38.9506 17.2773C38.0809 17.1801 37.0219 17.1813 35.9861 17.1813V19.0563ZM41.3668 23.0058C41.5783 21.9459 41.7579 21.0566 41.8019 20.3443C41.847 19.6115 41.7636 18.889 41.2864 18.2685L39.8003 19.4118C39.8778 19.5127 39.9634 19.6943 39.9304 20.2288C39.8961 20.7837 39.7504 21.5248 39.528 22.6388L41.3668 23.0058ZM34.9256 30.7813C35.8778 30.7813 36.6768 30.7829 37.3209 30.7041C37.9905 30.6222 38.6013 30.4431 39.1344 30.0086L37.9499 28.5551C37.7934 28.6826 37.5715 28.7844 37.0931 28.8431C36.5891 28.9047 35.9248 28.9063 34.9256 28.9063V30.7813ZM38.9045 25.6639C38.7028 26.6424 38.567 27.2929 38.4049 27.7741C38.251 28.2307 38.1064 28.4276 37.9499 28.5551L39.1344 30.0086C39.6675 29.5741 39.9663 29.0121 40.1818 28.3728C40.389 27.7578 40.5486 26.9749 40.7409 26.0424L38.9045 25.6639Z" fill="black"/>
<path d="M28.3751 23.9688L29.8037 25.4688L33.3751 21.7188" stroke="black" stroke-width="2" stroke-linecap="round" stroke-linejoin="round"/>
</g>
<defs>
<filter id="filter0_d_113_101" x="0" y="0" width="58" height="58" filterUnits="userSpaceOnUse" color-interpolation-filters="sRGB">
<feFlood flood-opacity="0" result="BackgroundImageFix"/>
<feColorMatrix in="SourceAlpha" type="matrix" values="0 0 0 0 0 0 0 0 0 0 0 0 0 0 0 0 0 0 127 0" result="hardAlpha"/>
<feOffset dy="4"/>
<feGaussianBlur stdDeviation="2"/>
<feComposite in2="hardAlpha" operator="out"/>
<feColorMatrix type="matrix" values="0 0 0 0 0 0 0 0 0 0 0 0 0 0 0 0 0 0 0.25 0"/>
<feBlend mode="normal" in2="BackgroundImageFix" result="effect1_dropShadow_113_101"/>
<feBlend mode="normal" in="SourceGraphic" in2="effect1_dropShadow_113_101" result="shape"/>
</filter>
</defs>
</svg>
