<svg width="58" height="58" viewBox="0 0 58 58" fill="none" xmlns="http://www.w3.org/2000/svg">
<g filter="url(#filter0_d_113_97)">
<rect x="4" width="50" height="50" rx="25" fill="white"/>
<path fill-rule="evenodd" clip-rule="evenodd" d="M29 25C26.3402 25 24.1772 22.8472 24.1772 20.2C24.1772 17.5528 26.3402 15.4 29 15.4C31.6598 15.4 33.8229 17.5528 33.8229 20.2C33.8229 22.8472 31.6598 25 29 25ZM33.5311 25.8076C35.4446 24.2752 36.5598 21.7971 36.1499 19.0839C35.6736 15.9363 33.0428 13.4176 29.8669 13.0504C25.4842 12.5428 21.7657 15.9388 21.7657 20.2C21.7657 22.468 22.8219 24.4888 24.4689 25.8076C20.4226 27.3208 17.4686 30.874 17.0056 35.6692C16.938 36.3784 17.4939 37 18.2101 37C18.8238 37 19.3471 36.5392 19.4013 35.9308C19.8848 30.5752 24.0047 27.4 29 27.4C33.9953 27.4 38.1152 30.5752 38.5987 35.9308C38.653 36.5392 39.1762 37 39.79 37C40.5061 37 41.062 36.3784 40.9945 35.6692C40.5315 30.874 37.5775 27.3208 33.5311 25.8076Z" fill="black"/>
</g>
<defs>
<filter id="filter0_d_113_97" x="0" y="0" width="58" height="58" filterUnits="userSpaceOnUse" color-interpolation-filters="sRGB">
<feFlood flood-opacity="0" result="BackgroundImageFix"/>
<feColorMatrix in="SourceAlpha" type="matrix" values="0 0 0 0 0 0 0 0 0 0 0 0 0 0 0 0 0 0 127 0" result="hardAlpha"/>
<feOffset dy="4"/>
<feGaussianBlur stdDeviation="2"/>
<feComposite in2="hardAlpha" operator="out"/>
<feColorMatrix type="matrix" values="0 0 0 0 0 0 0 0 0 0 0 0 0 0 0 0 0 0 0.25 0"/>
<feBlend mode="normal" in2="BackgroundImageFix" result="effect1_dropShadow_113_97"/>
<feBlend mode="normal" in="SourceGraphic" in2="effect1_dropShadow_113_97" result="shape"/>
</filter>
</defs>
</svg>
